<?xml version="1.0" encoding="utf-8"?>
<!-- Generator: Adobe Illustrator 28.0.0, SVG Export Plug-In . SVG Version: 6.00 Build 0)  -->
<svg version="1.1" id="musling" xmlns="http://www.w3.org/2000/svg" xmlns:xlink="http://www.w3.org/1999/xlink" x="0px" y="0px"
	 viewBox="0 0 68.8 65.4" style="enable-background:new 0 0 68.8 65.4;" xml:space="preserve">
<path d="M33.2,62.4c3.2,1,6.2-0.7,8.7-2.5s4.8-4.2,7.3-6.3c1.3-1.1,2.7-2.2,4.2-3c1.4-0.7,2.6-1.6,3.7-2.6c1-0.9,1.8-1.9,2.8-2.8
	c1.2-1.2,2.6-1.9,4-2.9c1-0.7,1.2-1.2,1.4-2.3c0.2-1.4,2.2-2.1,2.8-3.5c0.3-0.6,0.5-1.4,0.3-2.1c-0.1-0.4-0.4-0.7-0.5-1
	c-0.2-0.6,0.2-1.4,0.4-2c0.6-1.9,1.2-4.2-0.8-5.6c-0.6-0.4-0.8-0.2-0.8-1.3c0-0.3,0.2-0.7,0.2-1c0.1-0.6,0.2-1.2,0.2-1.8
	c0-1.2-0.3-2.6-1.1-3.6c-0.4-0.5-0.8-0.9-1.4-1.1c-0.3-0.2-0.6-0.3-0.9-0.5C62.9,16,63,15.3,63,14.6c0-0.6,0.1-1-0.1-1.6
	c-0.3-0.8-0.9-1.5-1.4-2.1c-1-1.3-3.5-3.5-4.9-1.4l0.7,0.1C56.4,5.7,53,4,49.3,5l0.5,0.4c-0.3-2.5-2.2-4-4.6-4.3
	C44.6,1,44.1,0.9,43.6,1c-0.7,0.1-1.4,0.8-2.1,0.6c-0.8-0.3-1.4-0.9-2.2-1.1c-0.5-0.1-1.1-0.1-1.7-0.1c-0.8,0.1-1.4,0.4-2.1,0.6
	c-1.1,0.3-1.3-0.3-2.2-0.6C32.6,0.1,31.8,0,31.2,0c-1.3-0.1-2.7,0.1-3.8,0.8c-0.5,0.3-0.8,0.8-1.3,1.1c-1,0.7-1.9,0.1-3,0.1
	c-1.4-0.1-2.5,0.8-3.4,1.7C19,4.6,18.3,5,17.2,5c-0.7,0-1.4,0-2,0.2C14,5.7,13,6.6,12.3,7.8c-0.3,0.6-0.5,1.3-1.1,1.7
	c-0.7,0.6-1.8,0.5-2.6,0.8c-1.1,0.4-1.8,1.4-2.1,2.5c-0.2,0.7-0.1,1.6-0.4,2.3c-0.5,1.1-1.4,1.1-2.3,1.6c-1.1,0.6-1.6,1.8-1.8,3
	s0.5,2.3,0.6,3.5c0,0.8-0.4,1.1-0.9,1.7s-0.8,1.3-1.1,2C0,28.3-0.2,30,0.2,31.6c0.2,0.8,0.7,1.4,1,2.2c0.4,0.9,0.1,1.9,0.3,2.9
	C1.9,38,2.9,39,4.2,39.5L4,38.9C3.3,39.8,3.3,41,4,42c0.8,1.3,2.3,1.7,3.5,2.5c1.6,1,2.7,2.5,3.9,3.9c1.1,1.3,2.3,2.5,3.8,3.4
	s3.2,1.7,4.7,2.7c1.8,1.2,3.1,2.7,4.6,4.2c2.2,2.3,5.1,4.5,8.5,3.7c0.5-0.1,0.3-0.8-0.2-0.7c-3.6,0.9-6.4-2-8.7-4.4
	c-1-1.1-2-2.1-3.2-2.9c-1.2-0.9-2.6-1.6-4-2.4c-1.4-0.8-2.8-1.7-3.9-2.8c-1-1-1.9-2.2-2.9-3.2c-0.9-0.9-1.8-1.7-2.9-2.4
	c-1.3-0.7-4.3-2.1-2.8-4.1c0.2-0.2,0.1-0.5-0.2-0.6c-0.9-0.4-1.7-1.1-2-2.1c-0.2-0.7-0.1-1.4-0.1-2.1c-0.1-1.4-1.2-2.4-1.4-3.9
	c-0.3-1.6,0.1-3.2,0.9-4.6C2.1,25.4,3,24.8,3.2,24S3,22.1,2.8,21.3c-0.5-1.9,0.1-3.5,2-4.2c0.9-0.4,1.7-0.7,2-1.7
	c0.4-1.4,0.1-3.2,1.6-4.1c1.1-0.6,2.4-0.3,3.3-1.1s1.2-2.2,2.1-3.1c0.5-0.5,1.3-1,2-1.2c0.7-0.1,1.4,0,2.1-0.1
	c1.2-0.2,1.8-0.9,2.7-1.8s1.8-1.2,2.9-1.1c0.5,0.1,1,0.3,1.6,0.3C26.4,3.1,26.9,2,28,1.4c1.3-0.7,2.8-0.7,4.2-0.4
	c0.7,0,1.2,0.4,1.8,0.7c0.3,0.2,0.6,0.3,1,0.2c0.9-0.1,1.6-0.7,2.5-0.8c0.8-0.1,1.6,0,2.3,0.3c0.6,0.3,1.1,0.9,1.8,0.9
	s1.2-0.5,1.8-0.6c0.8-0.2,1.8,0,2.5,0.2c1.6,0.5,2.9,1.7,3.1,3.4c0,0.2,0.2,0.4,0.5,0.4c3.4-0.9,6.3,0.6,7.1,4.1
	c0.1,0.3,0.5,0.4,0.7,0.1c0.8-1.2,2.2,0,2.9,0.6c0.5,0.5,1,1,1.3,1.6c0.2,0.3,0.4,0.6,0.5,0.9c0.3,0.7,0.2,1,0.2,1.7
	c-0.1,0.9-0.1,1.5,0.7,2.1c1,0.9,2.2,1,2.8,2.4c0.6,1.3,0.6,2.8,0.3,4.1c-0.2,0.8-0.6,1.7,0.1,2.4c0.5,0.4,1.1,0.6,1.4,1.1
	c0.4,0.6,0.6,1.5,0.5,2.2c-0.1,1-0.6,1.9-0.8,2.8c-0.2,0.7-0.2,1.3,0,1.9c0.4,1,0.5,1.6-0.2,2.6c-0.5,0.7-1.2,1.2-1.9,1.7
	c-0.3,0.2-0.5,0.3-0.6,0.6c-0.2,0.4,0,0.8-0.1,1.1c-0.2,1-0.8,1.4-1.6,1.9c-2.2,1.3-3.9,3-5.7,4.8c-0.9,0.9-1.9,1.8-3,2.5
	c-1.2,0.8-2.5,1.4-3.7,2.3c-2.5,1.9-4.7,4.2-7.1,6.2c-2.7,2.3-6.3,5.1-10,4C33,61.5,32.8,62.3,33.2,62.4L33.2,62.4L33.2,62.4z"/>
<path d="M2.6,24.6c2.7,3,5.4,5.9,8.1,8.9c1.3,1.4,2.4,2.9,3.3,4.6c0.8,1.4,1.7,2.7,2.8,3.9c4.7,5.7,8.4,12,10.9,19
	c0.2,0.4,0.9,0.2,0.7-0.2c-2.5-6.7-6-13-10.6-18.6c-1.2-1.5-2.4-2.9-3.3-4.7c-0.8-1.5-1.8-2.8-2.9-4.1c-2.8-3.1-5.7-6.3-8.5-9.4
	C2.8,23.8,2.3,24.3,2.6,24.6L2.6,24.6L2.6,24.6z"/>
<path d="M1.7,33.8c3.1,0.5,5.5,3.5,7.8,5.6s4.6,4.3,6.8,6.5c4.3,4.2,8.3,8.9,10.6,14.5c0.2,0.4,0.9,0.2,0.7-0.2
	c-2.4-5.8-6.4-10.5-10.8-14.9c-2.4-2.4-4.9-4.7-7.3-7c-2.2-2-4.5-4.8-7.6-5.3C1.5,33.1,1.2,33.8,1.7,33.8L1.7,33.8L1.7,33.8z"/>
<path d="M4.5,39.8c4.6,1.2,7.8,5.2,11,8.6c3.6,3.7,7.1,7.4,10.6,11.2c0.3,0.4,0.9-0.2,0.5-0.5c-3.7-4-7.4-7.9-11.2-11.8
	c-3.1-3.2-6.2-6.9-10.7-8.1C4.2,38.9,4,39.7,4.5,39.8L4.5,39.8L4.5,39.8z"/>
<path d="M6.2,15.9c1.1,1.9,2.4,3.5,3.5,5.4s2,3.7,2.9,5.6c2,3.9,3.9,7.9,5.9,11.8s3.9,7.9,5.9,11.8c0.9,1.8,1.8,3.7,2.8,5.5
	c1,1.9,2,3.8,2.3,6c0,0.5,0.8,0.5,0.8,0c-0.4-3.8-2.8-7.2-4.5-10.5c-2-4.1-4.1-8.2-6.1-12.2s-4.1-8.2-6.1-12.2c-1-2-2-4.1-3.2-6
	c-1.1-1.8-2.4-3.5-3.5-5.4C6.6,15.1,6,15.5,6.2,15.9L6.2,15.9L6.2,15.9z"/>
<path d="M11.3,9.8C19.1,26.7,26,44,30.8,62c0.1,0.5,0.8,0.3,0.7-0.2C26.7,43.7,19.8,26.4,11.9,9.4C11.7,9,11.1,9.4,11.3,9.8
	L11.3,9.8L11.3,9.8z"/>
<path d="M18.5,4.9c1.3,9.6,4.9,18.7,7.1,28.1c1.1,4.9,2.1,9.8,3,14.7s1.7,9.6,3.2,14.3c0.2,0.5,0.9,0.3,0.7-0.2
	c-1.5-4.7-2.4-9.5-3.2-14.3s-1.8-9.5-2.9-14.2s-2.3-9.2-3.7-13.8s-2.8-9.6-3.5-14.6C19.2,4.5,18.4,4.4,18.5,4.9L18.5,4.9L18.5,4.9z"
	/>
<path d="M25.5,3.1c1.5,10.4,3.4,20.8,4.6,31.2c0.6,5.2,0.8,10.4,1.1,15.6c0.1,2.2,0.1,4.4,0.6,6.5c0.4,1.8,0.8,3.5,0.8,5.4
	c0,0.5,0.8,0.5,0.8,0c0-3-1-5.8-1.2-8.7c-0.2-4.1-0.4-8.2-0.7-12.3c-0.5-8-1.9-15.9-3.1-23.8c-0.7-4.7-1.4-9.4-2.1-14.2
	C26.2,2.4,25.5,2.6,25.5,3.1L25.5,3.1L25.5,3.1z"/>
<path d="M34.2,1.8C33.6,21.9,34,42,34.1,62c0,0.5,0.8,0.5,0.8,0C34.7,42,34.3,21.9,35,1.8C35,1.3,34.2,1.3,34.2,1.8L34.2,1.8z"/>
<path d="M41.5,2.3c-0.3,9.9-1.9,19.8-3.1,29.6s-2.6,20-3.8,30c-0.1,0.5,0.7,0.5,0.8,0c1.2-10,2.5-20,3.8-30S42,12.2,42.3,2.3
	C42.2,1.8,41.5,1.8,41.5,2.3L41.5,2.3z"/>
<path d="M49,5.5c-2,9.6-4,19.2-6.1,28.8c-1,4.7-2.7,9.1-3.8,13.7s-2.2,9.4-3.2,14.1c-0.1,0.5,0.6,0.7,0.7,0.2
	c1.1-4.7,2-9.4,3.2-14.1s2.8-9.1,3.8-13.7c2.1-9.6,4-19.2,6.1-28.8C49.8,5.2,49.1,5,49,5.5L49,5.5z"/>
<path d="M56.7,9.8c-3.6,8.6-7.4,17.3-10.6,26.1s-5.8,17.8-10,26.2c-0.2,0.4,0.4,0.8,0.7,0.4c4.1-8.3,6.8-17.2,9.9-25.9
	S53.8,18.7,57.4,10C57.6,9.5,56.9,9.3,56.7,9.8L56.7,9.8L56.7,9.8z"/>
<path d="M62.2,15.3c-4.6,7-8.5,14.4-12.2,21.9s-7.5,15.4-10.8,23.3c-0.2,0.4,0.5,0.8,0.7,0.4c3.4-7.9,7-15.7,10.8-23.3
	s7.6-14.9,12.2-21.9C63.1,15.3,62.4,14.9,62.2,15.3L62.2,15.3z"/>
<path d="M65.7,24.9c-2.7,2.6-5.1,5.4-7.5,8.3s-5,5.8-7.3,8.8c-4.3,5.5-8.2,11.4-10.4,18c-0.2,0.5,0.6,0.6,0.7,0.2
	c2.3-6.8,6.4-12.7,10.8-18.3c2.3-2.9,4.6-5.8,7-8.6s4.6-5.4,7.2-7.9C66.6,25.1,66,24.5,65.7,24.9L65.7,24.9L65.7,24.9z"/>
<path d="M67.2,34.1c0.5,0,0.5-0.8,0-0.8S66.7,34.1,67.2,34.1L67.2,34.1z"/>
<path d="M67.2,33.3c-2.9,0.9-5.2,2.9-7.5,4.8c-2.5,2-4.8,4.2-7.1,6.5c-4.4,4.5-8.2,9.6-11.5,14.9c-0.2,0.4,0.4,0.8,0.7,0.4
	c3.2-5.2,6.9-10.1,11.1-14.5c2-2.1,4.2-4.1,6.4-6c2.5-2.1,5-4.4,8.2-5.4C67.9,33.9,67.7,33.1,67.2,33.3L67.2,33.3L67.2,33.3z"/>
<path d="M65.1,38.3c-2,0.8-3.5,2.4-5.2,3.7c-2.2,1.7-4.3,3.4-6.4,5.1c-4,3.3-7.5,7.3-10.9,11.3c-0.3,0.4,0.2,0.9,0.5,0.5
	c3.2-3.8,6.4-7.5,10.2-10.7c1.9-1.6,3.9-3.1,5.9-4.7c1-0.8,2-1.5,3-2.4s1.9-1.6,3.1-2.1C65.7,38.9,65.5,38.2,65.1,38.3L65.1,38.3
	L65.1,38.3z"/>
</svg>
